<svg aria-hidden="true" style="position: absolute; width: 0; height: 0; overflow: hidden;" version="1.1" xmlns="http://www.w3.org/2000/svg" xmlns:xlink="http://www.w3.org/1999/xlink">
<defs>
<symbol id="icon-person" viewBox="0 0 32 32">
<path d="M16 2.674c3.682 0 6.667 2.985 6.667 6.667s-2.985 6.667-6.667 6.667c-3.682 0-6.667-2.985-6.667-6.667s2.985-6.667 6.667-6.667zM16 4.674c-2.577 0-4.667 2.089-4.667 4.667s2.089 4.667 4.667 4.667c2.577 0 4.667-2.089 4.667-4.667s-2.089-4.667-4.667-4.667z"></path>
<path d="M23.673 29.335c1.656 0 2.998-1.342 2.998-2.999v-0.767c0-1.193-0.426-2.346-1.201-3.251-2.092-2.445-5.275-3.651-9.469-3.651s-7.376 1.207-9.464 3.652c-0.773 0.905-1.198 2.057-1.198 3.247v0.77c0 1.656 1.342 2.999 2.998 2.999h15.336zM23.673 27.335h-15.336c-0.551 0-0.998-0.447-0.998-0.999v-0.77c0-0.714 0.255-1.405 0.719-1.948 1.671-1.957 4.292-2.951 7.943-2.951s6.274 0.994 7.95 2.951c0.465 0.544 0.721 1.236 0.721 1.951v0.767c0 0.551-0.447 0.999-0.998 0.999z"></path>
</symbol>

<symbol id="icon-slanted-arrow" viewBox="0 0 32 32">
<path d="M21.962 6h-18.962c-1.657 0-3-1.343-3-3s1.343-3 3-3h26c1.657 0 3 1.343 3 3v26c0 1.657-1.343 3-3 3s-3-1.343-3-3v-18.554l-20.889 20.686c-1.177 1.166-3.077 1.156-4.242-0.021s-1.157-3.077 0.020-4.242l21.073-20.869z"></path>
</symbol>

<symbol id="icon-eye" viewBox="0 0 55 32">
<path d="M27.429 10.298c5.891 0 10.667 4.776 10.667 10.667s-4.776 10.667-10.667 10.667c-5.891 0-10.667-4.775-10.667-10.667s4.776-10.667 10.667-10.667zM27.429 14.298c-3.682 0-6.667 2.985-6.667 6.667s2.985 6.667 6.667 6.667c3.682 0 6.667-2.985 6.667-6.667s-2.985-6.667-6.667-6.667zM27.429 0.953c12.303 0 22.923 8.4 25.869 20.172 0.268 1.071-0.383 2.158-1.454 2.426s-2.158-0.383-2.426-1.455c-2.504-10.002-11.532-17.143-21.989-17.143-10.462 0-19.493 7.147-21.992 17.155-0.268 1.072-1.353 1.723-2.425 1.456s-1.723-1.353-1.456-2.425c2.942-11.779 13.565-20.186 25.873-20.186z"></path>
</symbol>

<symbol id="icon-plain-calendar" viewBox="0 0 32 32">
<path d="M24.944 2c2.792 0 5.056 2.263 5.056 5.056v17.889c0 2.792-2.263 5.056-5.056 5.056h-17.889c-2.792 0-5.056-2.263-5.056-5.056v-17.889c0-2.792 2.263-5.056 5.056-5.056h17.889zM27.667 10.556h-23.333v14.389c0 1.503 1.219 2.722 2.722 2.722h17.889c1.503 0 2.722-1.219 2.722-2.722v-14.389zM24.944 4.333h-17.889c-1.503 0-2.722 1.219-2.722 2.722v1.167h23.333v-1.167c0-1.503-1.219-2.722-2.722-2.722z"></path>
</symbol>

<symbol id="icon-location" viewBox="0 0 32 32">
<path d="M7.791 6.091c4.534-4.534 11.885-4.534 16.419 0s4.534 11.885 0 16.419l-1.583 1.565c-1.166 1.145-2.68 2.617-4.541 4.416-1.163 1.124-3.008 1.124-4.171-0l-4.655-4.528c-0.585-0.574-1.075-1.059-1.469-1.453-4.534-4.534-4.534-11.885 0-16.419zM22.795 7.505c-3.753-3.753-9.837-3.753-13.59 0s-3.753 9.837 0 13.59l1.983 1.957c1.092 1.068 2.464 2.402 4.117 4.001 0.388 0.375 1.003 0.375 1.39 0l4.527-4.402c0.625-0.614 1.15-1.132 1.573-1.556 3.753-3.753 3.753-9.837 0-13.59zM16 10.665c2.21 0 4.002 1.792 4.002 4.002s-1.792 4.002-4.002 4.002c-2.21 0-4.002-1.792-4.002-4.002s1.792-4.002 4.002-4.002zM16 12.665c-1.106 0-2.002 0.896-2.002 2.002s0.896 2.002 2.002 2.002c1.106 0 2.002-0.896 2.002-2.002s-0.896-2.002-2.002-2.002z"></path>
</symbol>

<symbol id="icon-mail" viewBox="0 0 32 32">
<path d="M7.001 5.334h18c2.311 0 4.199 1.809 4.327 4.087l0.007 0.246v12.667c0 2.311-1.809 4.199-4.088 4.327l-0.246 0.007h-18c-2.311 0-4.199-1.809-4.326-4.087l-0.007-0.246v-12.667c0-2.311 1.809-4.199 4.087-4.326l0.246-0.007zM27.334 12.498l-10.868 5.721c-0.25 0.131-0.542 0.15-0.803 0.056l-0.128-0.056-10.868-5.72v9.835c0 1.224 0.943 2.228 2.142 2.326l0.191 0.008h18c1.224 0 2.228-0.943 2.326-2.142l0.008-0.191v-9.836zM25 7.334h-18c-1.224 0-2.228 0.943-2.326 2.142l-0.008 0.191v0.572l11.333 5.965 11.333-5.966v-0.571c0-1.224-0.943-2.228-2.142-2.326l-0.191-0.008z"></path>
</symbol>

<symbol id="icon-phone" viewBox="0 0 32 32">
<path d="M22.118 31.059c-11.676 0-21.176-9.5-21.176-21.176 0.004-2.003 0.736-3.936 2.059-5.44s3.147-2.476 5.132-2.737c0.506-0.056 1.017 0.050 1.459 0.304s0.791 0.642 0.997 1.107l2.956 6.897c0.153 0.358 0.215 0.749 0.179 1.136s-0.168 0.76-0.385 1.084l-2.441 3.735c1.105 2.243 2.927 4.054 5.176 5.147l3.691-2.456c0.323-0.218 0.697-0.35 1.086-0.383s0.779 0.033 1.135 0.192l6.897 2.941c0.466 0.206 0.854 0.556 1.108 0.997s0.36 0.953 0.304 1.459c-0.26 1.986-1.233 3.81-2.736 5.133s-3.437 2.054-5.44 2.059zM8.426 4.044c-1.419 0.182-2.723 0.876-3.668 1.951s-1.465 2.457-1.464 3.888c0.004 4.991 1.988 9.777 5.518 13.306s8.315 5.514 13.306 5.518c1.431 0.001 2.813-0.52 3.888-1.464s1.768-2.249 1.951-3.668l-6.897-2.941-3.676 2.456c-0.338 0.224-0.729 0.356-1.133 0.384s-0.81-0.048-1.176-0.223c-2.74-1.325-4.956-3.531-6.294-6.265-0.176-0.365-0.256-0.769-0.23-1.174s0.156-0.796 0.377-1.135l2.456-3.735-2.956-6.897z"></path>
</symbol>

<symbol id="icon-linkedin" viewBox="0 0 32 32">
<path d="M31.992 32.001v-0.001h0.008v-11.736c0-5.741-1.236-10.164-7.948-10.164-3.227 0-5.392 1.771-6.276 3.449h-0.093v-2.913h-6.364v21.364h6.627v-10.579c0-2.785 0.528-5.479 3.977-5.479 3.399 0 3.449 3.179 3.449 5.657v10.401h6.62z"></path>
<path d="M0.528 10.637h6.635v21.364h-6.635v-21.364z"></path>
<path d="M3.843 0c-2.121 0-3.843 1.721-3.843 3.843s1.721 3.879 3.843 3.879c2.121 0 3.843-1.757 3.843-3.879-0.001-2.121-1.723-3.843-3.843-3.843v0z"></path>
</symbol>

<symbol id="icon-facebook" viewBox="0 0 32 32">
<path d="M21.329 5.313h2.921v-5.088c-0.504-0.069-2.237-0.225-4.256-0.225-4.212 0-7.097 2.649-7.097 7.519v4.481h-4.648v5.688h4.648v14.312h5.699v-14.311h4.46l0.708-5.688h-5.169v-3.919c0.001-1.644 0.444-2.769 2.735-2.769z"></path>
</symbol>

<symbol id="icon-twitter" viewBox="0 0 32 32">
<path d="M32 6.078c-1.19 0.522-2.458 0.868-3.78 1.036 1.36-0.812 2.398-2.088 2.886-3.626-1.268 0.756-2.668 1.29-4.16 1.588-1.204-1.282-2.92-2.076-4.792-2.076-3.632 0-6.556 2.948-6.556 6.562 0 0.52 0.044 1.020 0.152 1.496-5.454-0.266-10.28-2.88-13.522-6.862-0.566 0.982-0.898 2.106-0.898 3.316 0 2.272 1.17 4.286 2.914 5.452-1.054-0.020-2.088-0.326-2.964-0.808 0 0.020 0 0.046 0 0.072 0 3.188 2.274 5.836 5.256 6.446-0.534 0.146-1.116 0.216-1.72 0.216-0.42 0-0.844-0.024-1.242-0.112 0.85 2.598 3.262 4.508 6.13 4.57-2.232 1.746-5.066 2.798-8.134 2.798-0.538 0-1.054-0.024-1.57-0.090 2.906 1.874 6.35 2.944 10.064 2.944 12.072 0 18.672-10 18.672-18.668 0-0.29-0.010-0.57-0.024-0.848 1.302-0.924 2.396-2.078 3.288-3.406z"></path>
</symbol>

<symbol id="icon-instagram" viewBox="0 0 32 32">
<path d="M31.969 9.408c-0.075-1.7-0.35-2.869-0.744-3.882-0.406-1.075-1.031-2.038-1.85-2.838-0.8-0.813-1.769-1.444-2.832-1.844-1.019-0.394-2.182-0.669-3.882-0.744-1.713-0.081-2.257-0.1-6.601-0.1s-4.888 0.019-6.595 0.094c-1.7 0.075-2.869 0.35-3.882 0.744-1.075 0.406-2.038 1.031-2.838 1.85-0.813 0.8-1.444 1.769-1.844 2.832-0.394 1.019-0.669 2.182-0.744 3.882-0.081 1.713-0.1 2.257-0.1 6.601s0.019 4.888 0.094 6.595c0.075 1.7 0.35 2.869 0.744 3.882 0.406 1.075 1.038 2.038 1.85 2.838 0.8 0.813 1.769 1.444 2.832 1.844 1.019 0.394 2.182 0.669 3.882 0.744 1.706 0.075 2.25 0.094 6.595 0.094s4.888-0.019 6.595-0.094c1.7-0.075 2.869-0.35 3.882-0.744 2.151-0.832 3.851-2.532 4.682-4.682 0.394-1.019 0.669-2.182 0.744-3.882 0.075-1.707 0.094-2.251 0.094-6.595s-0.006-4.888-0.081-6.595zM29.087 22.473c-0.069 1.563-0.331 2.407-0.55 2.969-0.538 1.394-1.644 2.5-3.038 3.038-0.563 0.219-1.413 0.481-2.969 0.55-1.688 0.075-2.194 0.094-6.464 0.094s-4.782-0.019-6.464-0.094c-1.563-0.069-2.407-0.331-2.969-0.55-0.694-0.256-1.325-0.663-1.838-1.194-0.531-0.519-0.938-1.144-1.194-1.838-0.219-0.563-0.481-1.413-0.55-2.969-0.075-1.688-0.094-2.194-0.094-6.464s0.019-4.782 0.094-6.464c0.069-1.563 0.331-2.407 0.55-2.969 0.256-0.694 0.663-1.325 1.2-1.838 0.519-0.531 1.144-0.938 1.838-1.194 0.563-0.219 1.413-0.481 2.969-0.55 1.688-0.075 2.194-0.094 6.464-0.094 4.276 0 4.782 0.019 6.464 0.094 1.563 0.069 2.407 0.331 2.969 0.55 0.694 0.256 1.325 0.662 1.838 1.194 0.531 0.519 0.938 1.144 1.194 1.838 0.219 0.563 0.481 1.413 0.55 2.969 0.075 1.688 0.094 2.194 0.094 6.464s-0.019 4.77-0.094 6.458z"></path>
<path d="M16.059 7.781c-4.538 0-8.22 3.682-8.22 8.22s3.682 8.22 8.22 8.22c4.539 0 8.22-3.682 8.22-8.22s-3.682-8.22-8.22-8.22zM16.059 21.334c-2.944 0-5.332-2.388-5.332-5.332s2.388-5.332 5.332-5.332c2.944 0 5.332 2.388 5.332 5.332s-2.388 5.332-5.332 5.332z"></path>
<path d="M26.524 7.457c0 1.060-0.859 1.919-1.919 1.919s-1.919-0.859-1.919-1.919c0-1.060 0.859-1.919 1.919-1.919s1.919 0.859 1.919 1.919z"></path>
</symbol>

<symbol id="icon-arrow" viewBox="0 0 43 32">
<path stroke-linejoin="round" stroke-linecap="round" stroke-miterlimit="4" stroke-width="2.9714" d="M27.325 2.286l2.576 3.408c2.22 2.937 4.846 5.545 7.799 7.743l3.443 2.563M41.143 16h-38.857M41.143 16l-3.443 2.563c-2.953 2.198-5.579 4.806-7.799 7.743l-2.576 3.408"></path>
</symbol>

<symbol id="icon-bug" viewBox="0 0 33 32">
<path d="M14.069 1.246c0-0.686-0.556-1.241-1.241-1.241s-1.241 0.556-1.241 1.241v1.245c0 1.047 0.324 2.018 0.877 2.819-2.305 0.793-3.997 2.905-4.172 5.435l-0.424-0c-2.057-0.008-3.717-1.683-3.709-3.739l0.010-2.459c0.003-0.686-0.551-1.244-1.236-1.247s-1.244 0.551-1.246 1.236l-0.010 2.459c-0.014 3.428 2.753 6.218 6.181 6.232l0.026 0h0.393v2.499h-7.034c-0.686 0-1.241 0.556-1.241 1.241s0.556 1.241 1.241 1.241h7.034v3.298h-0.419c-3.428 0.014-6.195 2.805-6.181 6.233l0.010 2.459c0.003 0.686 0.561 1.239 1.246 1.236s1.239-0.561 1.236-1.246l-0.010-2.459c-0.008-2.057 1.652-3.731 3.709-3.74h0.783c1.050 3.365 4.191 5.807 7.901 5.807s6.851-2.442 7.901-5.807h0.783c2.057 0.009 3.717 1.683 3.709 3.74l-0.010 2.459c-0.003 0.686 0.551 1.244 1.236 1.246s1.244-0.551 1.247-1.236l0.010-2.459c0.014-3.428-2.753-6.218-6.181-6.233h-0.419v-3.298h7.037c0.686 0 1.241-0.556 1.241-1.241s-0.556-1.241-1.241-1.241h-7.037v-2.499l0.419-0c3.428-0.014 6.195-2.805 6.181-6.232l-0.010-2.459c-0.003-0.686-0.561-1.239-1.247-1.236s-1.239 0.561-1.236 1.247l0.010 2.459c0.009 2.057-1.652 3.731-3.709 3.739l-0.015 0h-0.408c-0.175-2.53-1.867-4.643-4.172-5.435 0.553-0.801 0.877-1.772 0.877-2.819v-1.245c0-0.686-0.556-1.241-1.241-1.241s-1.241 0.556-1.241 1.241v1.245c0 1.371-1.112 2.483-2.483 2.483s-2.483-1.112-2.483-2.483v-1.245zM10.759 11.18c0-2.057 1.667-3.724 3.724-3.724h4.138c2.057 0 3.724 1.667 3.724 3.724v10.34c0 3.199-2.594 5.793-5.793 5.793s-5.793-2.594-5.793-5.793v-10.34z"></path>
</symbol>

<symbol id="icon-nav-arrows" viewBox="0 0 32 32">
<path d="M5.778 0c-3.191 0-5.778 2.587-5.778 5.778v20.444c0 3.191 2.587 5.778 5.778 5.778h20.444c3.191 0 5.778-2.587 5.778-5.778v-20.444c0-3.191-2.587-5.778-5.778-5.778h-20.444zM2.667 5.778c0-1.718 1.393-3.111 3.111-3.111h20.444c1.718 0 3.111 1.393 3.111 3.111v20.444c0 1.718-1.393 3.111-3.111 3.111h-20.444c-1.718 0-3.111-1.393-3.111-3.111v-20.444zM13.387 11.165c0.521-0.521 0.521-1.365 0-1.886s-1.365-0.521-1.886 0l-5.778 5.778c-0.521 0.521-0.521 1.365 0 1.885l5.778 5.778c0.521 0.521 1.365 0.521 1.886 0s0.521-1.365 0-1.886l-4.835-4.835 4.835-4.835zM20.498 9.279c-0.521-0.521-1.365-0.521-1.886 0s-0.521 1.365 0 1.886l4.835 4.835-4.835 4.835c-0.521 0.521-0.521 1.365 0 1.886s1.365 0.521 1.886 0l5.778-5.778c0.521-0.521 0.521-1.365 0-1.885l-5.778-5.778z"></path>
</symbol>

<symbol id="icon-drawing" viewBox="0 0 32 32">
<path d="M28.887 4.667c0-2.872-2.328-5.2-5.2-5.2h-18.4c-2.872 0-5.2 2.328-5.2 5.2v19.652c0 2.086 2.513 3.14 4.001 1.677l6.447-6.336c0.011-0.011 0.022-0.022 0.033-0.033l3.080-3.016 0.134-0.113c0.466-0.34 1.121-0.302 1.546 0.113l3.327 3.258 1.698-1.698-3.345-3.276-0.205-0.186c-1.405-1.181-3.499-1.119-4.832 0.186l-7.124 6.975h0.018l-2.375 2.334v-19.538c0-1.546 1.254-2.8 2.8-2.8h18.4c1.546 0 2.8 1.254 2.8 2.8v7.972c0.766-0.305 1.59-0.422 2.4-0.352v-7.62zM23.293 8.67c0-1.99-1.613-3.603-3.604-3.603s-3.603 1.613-3.603 3.603 1.613 3.603 3.603 3.603c1.99 0 3.604-1.613 3.604-3.603zM18.486 8.67c0-0.665 0.539-1.203 1.203-1.203s1.204 0.539 1.204 1.203-0.539 1.203-1.204 1.203c-0.665 0-1.203-0.539-1.203-1.203zM16.403 24.382l9.444-9.444c1.428-1.428 3.744-1.428 5.172 0s1.428 3.744 0 5.172l-9.444 9.444c-0.551 0.551-1.241 0.941-1.996 1.13l-2.929 0.732c-0.080 0.020-0.159 0.034-0.237 0.043-0.946 0.326-4.768 0.918-6.124-0.141-0.919-0.717-0.736-2.135-0.348-2.91 0.062-0.124-0.032-0.286-0.169-0.265-1.057 0.165-1.989 0.721-2.922 1.278-1.254 0.748-2.511 1.498-4.079 1.304-1.566-0.195-2.349-1.161-2.736-2.007-0.158-0.346 0.287-0.642 0.621-0.46 0.75 0.409 1.769 0.793 2.61 0.607 0.6-0.133 1.446-0.731 2.394-1.402 1.704-1.206 3.739-2.645 5.267-2.030 1.342 0.54 2.335 1.842 1.648 3.381-0.084 0.189 0 0.421 0.202 0.468 0.677 0.155 1.245 0.106 1.813-0.167l0.685-2.739c0.189-0.756 0.579-1.445 1.13-1.996z"></path>
</symbol>

<symbol id="icon-calendar-with-pen" viewBox="0 0 32 32">
<path d="M28.797 5.2c0-2.872-2.328-5.2-5.2-5.2h-18.398c-2.872 0-5.2 2.328-5.2 5.2v18.398c0 2.872 2.328 5.2 5.2 5.2h7.864l0.569-2.277c0.010-0.041 0.021-0.082 0.032-0.123h-8.465c-1.546 0-2.8-1.253-2.8-2.8v-14.799h23.998v4.371c0.766-0.305 1.59-0.422 2.4-0.352v-7.619zM5.2 2.4h18.398c1.546 0 2.8 1.253 2.8 2.8v1.2h-23.998v-1.2c0-1.546 1.253-2.8 2.8-2.8zM25.757 15.47l-9.443 9.443c-0.551 0.551-0.941 1.241-1.13 1.996l-0.732 2.929c-0.319 1.274 0.835 2.428 2.109 2.109l2.929-0.732c0.755-0.189 1.445-0.579 1.996-1.13l9.443-9.443c1.428-1.428 1.428-3.744 0-5.172s-3.743-1.428-5.172 0z"></path>
</symbol>



<symbol id="icon-amazon" viewBox="0 0 176 32">
<path d="M101.276 5.766v-3.981c0-0.603 0.458-1.007 1.007-1.007h17.824c0.572 0 1.030 0.412 1.030 1.007v3.409c-0.008 0.572-0.488 1.319-1.342 2.502l-9.236 13.187c3.432-0.084 7.055 0.427 10.166 2.181 0.702 0.397 0.892 0.976 0.946 1.548v4.248c0 0.58-0.641 1.258-1.312 0.908-5.484-2.875-12.767-3.188-18.83 0.031-0.618 0.336-1.266-0.336-1.266-0.915v-4.035c0-0.648 0.008-1.754 0.656-2.738l10.7-15.345h-9.312c-0.572 0-1.030-0.404-1.030-0.999z"></path>
<path d="M36.258 30.606h-5.423c-0.519-0.038-0.931-0.427-0.969-0.923v-27.83c0-0.557 0.465-0.999 1.045-0.999h5.057c0.526 0.023 0.946 0.427 0.984 0.93v3.638h0.099c1.319-3.516 3.798-5.156 7.139-5.156 3.394 0 5.514 1.64 7.040 5.156 1.312-3.516 4.294-5.156 7.489-5.156 2.273 0 4.759 0.938 6.277 3.043 1.716 2.341 1.365 5.743 1.365 8.725l-0.008 17.564c0 0.557-0.465 1.007-1.045 1.007h-5.415c-0.542-0.038-0.976-0.473-0.976-1.007v-14.75c0-1.175 0.107-4.103-0.152-5.217-0.404-1.869-1.617-2.395-3.188-2.395-1.312 0-2.685 0.877-3.241 2.28s-0.504 3.752-0.504 5.331v14.75c0 0.557-0.465 1.007-1.045 1.007h-5.415c-0.549-0.038-0.976-0.473-0.976-1.007l-0.008-14.75c0-3.104 0.511-7.673-3.34-7.673-3.897 0-3.745 4.454-3.745 7.673v14.75c0 0.557-0.465 1.007-1.045 1.007z"></path>
<path d="M136.48 0.267c8.046 0 12.401 6.91 12.401 15.696 0 8.489-4.812 15.223-12.401 15.223-7.901 0-12.203-6.91-12.203-15.52 0-8.664 4.355-15.398 12.203-15.398zM136.526 5.949c-3.996 0-4.248 5.445-4.248 8.839 0 3.401-0.053 10.662 4.202 10.662 4.202 0 4.401-5.857 4.401-9.427 0-2.349-0.099-5.156-0.808-7.383-0.61-1.937-1.823-2.692-3.546-2.692z"></path>
<path d="M159.315 30.606h-5.4c-0.542-0.038-0.976-0.473-0.976-1.007l-0.008-27.838c0.046-0.511 0.496-0.908 1.045-0.908h5.026c0.473 0.023 0.862 0.343 0.968 0.778v4.256h0.099c1.517-3.806 3.645-5.621 7.39-5.621 2.432 0 4.805 0.877 6.33 3.28 1.419 2.227 1.419 5.972 1.419 8.664v17.519c-0.061 0.488-0.512 0.877-1.045 0.877h-5.438c-0.496-0.038-0.907-0.404-0.96-0.877v-15.116c0-3.043 0.35-7.497-3.395-7.497-1.318 0-2.531 0.885-3.134 2.227-0.762 1.701-0.861 3.394-0.861 5.27v14.987c-0.008 0.557-0.481 1.007-1.061 1.007z"></path>
<path d="M87.067 17.313c0 2.113 0.053 3.874-1.014 5.751-0.862 1.525-2.235 2.463-3.752 2.463-2.082 0-3.302-1.586-3.302-3.928 0-4.622 4.141-5.461 8.069-5.461v1.174zM92.536 30.53c-0.359 0.32-0.877 0.343-1.281 0.13-1.8-1.495-2.128-2.189-3.112-3.615-2.974 3.035-5.087 3.943-8.939 3.943-4.568 0-8.115-2.814-8.115-8.45 0-4.401 2.38-7.398 5.781-8.862 2.944-1.297 7.055-1.525 10.197-1.884v-0.702c0-1.289 0.099-2.814-0.664-3.928-0.656-0.999-1.922-1.411-3.043-1.411-2.067 0-3.905 1.060-4.355 3.257-0.092 0.488-0.45 0.969-0.946 0.992l-5.255-0.564c-0.442-0.099-0.938-0.458-0.808-1.136 1.205-6.376 6.971-8.298 12.127-8.298 2.639 0 6.086 0.702 8.168 2.7 2.639 2.463 2.387 5.751 2.387 9.328v8.45c0 2.54 1.052 3.653 2.044 5.026 0.343 0.488 0.42 1.075-0.023 1.441-1.106 0.923-3.074 2.639-4.157 3.6l-0.008-0.015z"></path>
<path d="M15.978 17.313c0 2.113 0.053 3.874-1.014 5.751-0.862 1.525-2.227 2.464-3.752 2.464-2.082 0-3.295-1.586-3.295-3.928 0-4.622 4.141-5.461 8.061-5.461v1.174zM21.446 30.53c-0.358 0.32-0.877 0.343-1.281 0.13-1.8-1.495-2.12-2.189-3.112-3.615-2.974 3.035-5.079 3.943-8.939 3.943-4.561 0-8.115-2.814-8.115-8.451 0-4.401 2.387-7.398 5.781-8.862 2.944-1.297 7.055-1.525 10.197-1.884v-0.702c0-1.289 0.099-2.814-0.656-3.928-0.664-0.999-1.93-1.411-3.043-1.411-2.067 0-3.913 1.060-4.362 3.257-0.092 0.488-0.45 0.969-0.938 0.991l-5.262-0.564c-0.442-0.099-0.93-0.458-0.808-1.136 1.213-6.376 6.971-8.298 12.127-8.298 2.639 0 6.086 0.702 8.168 2.7 2.639 2.463 2.387 5.751 2.387 9.328v8.45c0 2.54 1.053 3.653 2.044 5.026 0.351 0.488 0.427 1.075-0.015 1.441-1.106 0.923-3.074 2.639-4.157 3.6l-0.015-0.015z"></path>
</symbol>

<symbol id="icon-amazon-logo" viewBox="0 0 135 32">
<path d="M120.994 15.56c-14.545 10.721-35.628 16.441-53.779 16.441-25.451 0-48.364-9.414-65.699-25.070-1.362-1.231-0.142-2.909 1.493-1.95 18.707 10.884 41.838 17.433 65.732 17.433 16.114 0 33.841-3.334 50.14-10.253 2.462-1.046 4.522 1.613 2.114 3.399z"></path>
<path d="M127.041 8.641c-1.852-2.375-12.29-1.122-16.975-0.567-1.427 0.174-1.645-1.068-0.36-1.961 8.313-5.851 21.954-4.162 23.545-2.201 1.591 1.972-0.414 15.646-8.226 22.172-1.199 1.003-2.343 0.469-1.809-0.861 1.754-4.38 5.687-14.197 3.824-16.583z"></path>
</symbol>

<symbol id="icon-dropbox" viewBox="0 0 135 32">
<path d="M0.057 2.3h8.711c5.554 0 10.141 3.213 10.141 10.55v1.542c0 7.392-4.29 10.717-9.974 10.717h-8.878v-22.808zM4.924 6.442v14.506h3.733c3.157 0 5.275-2.062 5.275-6.649v-1.207c0-4.588-2.229-6.649-5.442-6.649h-3.566zM21.491 6.665h3.9l0.632 4.29c0.743-2.916 2.637-4.476 6.073-4.476h1.207v4.922h-2.006c-3.956 0-4.922 1.374-4.922 5.275v8.488h-4.811v-18.499h-0.074zM34.27 16.286v-0.52c0-6.185 3.956-9.565 9.343-9.565 5.498 0 9.343 3.38 9.343 9.565v0.52c0 6.074-3.733 9.343-9.343 9.343-5.962-0.056-9.343-3.25-9.343-9.343zM48.033 16.23v-0.464c0-3.436-1.727-5.498-4.476-5.498-2.693 0-4.476 1.895-4.476 5.498v0.464c0 3.325 1.727 5.219 4.476 5.219 2.749-0.056 4.476-1.895 4.476-5.219zM55.481 6.665h4.012l0.464 3.492c0.966-2.34 3.028-3.956 6.074-3.956 4.699 0 7.801 3.38 7.801 9.64v0.52c0 6.074-3.436 9.287-7.801 9.287-2.916 0-4.922-1.319-5.907-3.436v9.343h-4.699l0.056-24.889zM68.947 16.23v-0.409c0-3.678-1.894-5.498-4.42-5.498-2.693 0-4.476 2.062-4.476 5.498v0.353c0 3.269 1.727 5.331 4.421 5.331 2.767-0.056 4.476-1.82 4.476-5.275zM80.945 21.747l-0.409 3.38h-4.123v-24.647h4.699v9.454c1.040-2.415 3.102-3.733 6.018-3.733 4.421 0.056 7.689 3.102 7.689 9.231v0.576c0 6.129-3.102 9.64-7.801 9.64-3.102-0.074-5.108-1.504-6.074-3.9zM89.879 16.007v-0.464c0-3.38-1.839-5.275-4.42-5.275-2.638 0-4.476 2.117-4.476 5.331v0.409c0 3.436 1.783 5.442 4.42 5.442 2.823 0 4.476-1.764 4.476-5.442zM96.882 16.286v-0.52c0-6.185 3.956-9.565 9.343-9.565 5.498 0 9.343 3.38 9.343 9.565v0.52c0 6.074-3.789 9.343-9.343 9.343-5.962-0.056-9.343-3.25-9.343-9.343zM110.682 16.23v-0.464c0-3.436-1.727-5.498-4.476-5.498-2.693 0-4.476 1.895-4.476 5.498v0.464c0 3.325 1.727 5.219 4.476 5.219 2.768-0.056 4.476-1.895 4.476-5.219zM121.863 15.543l-6.482-8.878h5.554l3.733 5.553 3.79-5.553h5.497l-6.575 8.822 6.928 9.64h-5.442l-4.234-6.129-4.123 6.129h-5.683l7.039-9.584z"></path>
</symbol>

<symbol id="icon-dropbox-logo" viewBox="0 0 38 32">
<path d="M18.852 6.013l-9.426 6.013 9.426 6.013-9.426 6.013-9.426-6.046 9.426-6.013-9.426-5.981 9.426-6.013 9.426 6.013zM9.377 25.987l9.426-6.013 9.426 6.013-9.426 6.013-9.426-6.013zM18.852 18.007l9.426-6.013-9.426-5.981 9.377-6.013 9.426 6.013-9.426 6.013 9.426 6.013-9.426 6.013-9.377-6.046z"></path>
</symbol>

<symbol id="icon-spotify" viewBox="0 0 104 32">
<path d="M15.682 0.058c-8.631 0-15.628 6.997-15.628 15.628s6.997 15.628 15.628 15.628c8.632 0 15.628-6.996 15.628-15.628s-6.996-15.627-15.629-15.627l0-0.001zM22.849 22.598c-0.28 0.459-0.881 0.605-1.34 0.323-3.669-2.241-8.289-2.749-13.729-1.506-0.524 0.119-1.047-0.209-1.166-0.733s0.207-1.047 0.733-1.166c5.953-1.36 11.060-0.774 15.179 1.743 0.459 0.282 0.605 0.881 0.323 1.34zM24.762 18.343c-0.353 0.573-1.103 0.754-1.676 0.402-4.201-2.582-10.604-3.33-15.573-1.822-0.644 0.195-1.325-0.168-1.521-0.812-0.194-0.644 0.169-1.324 0.813-1.52 5.676-1.722 12.732-0.888 17.556 2.077 0.573 0.353 0.754 1.103 0.401 1.675v-0zM24.926 13.912c-5.037-2.992-13.347-3.267-18.156-1.807-0.772 0.234-1.589-0.202-1.823-0.974s0.202-1.589 0.974-1.823c5.52-1.676 14.698-1.352 20.497 2.091 0.696 0.412 0.924 1.309 0.511 2.003-0.411 0.695-1.31 0.924-2.002 0.511h-0.001zM42.573 14.485c-2.699-0.643-3.178-1.095-3.178-2.044 0-0.897 0.844-1.5 2.099-1.5 1.217 0 2.422 0.458 3.688 1.401 0.037 0.028 0.086 0.040 0.132 0.032 0.049-0.007 0.090-0.033 0.118-0.072l1.318-1.857c0.054-0.076 0.039-0.182-0.034-0.24-1.506-1.208-3.201-1.795-5.182-1.795-2.913 0-4.949 1.748-4.949 4.25 0 2.683 1.756 3.633 4.791 4.366 2.581 0.595 3.018 1.093 3.018 1.984 0 0.987-0.881 1.601-2.299 1.601-1.575 0-2.861-0.532-4.298-1.775-0.035-0.032-0.084-0.045-0.129-0.043-0.049 0.004-0.091 0.026-0.121 0.062l-1.478 1.758c-0.062 0.075-0.054 0.183 0.017 0.246 1.672 1.493 3.729 2.281 5.949 2.281 3.139 0 5.168-1.715 5.168-4.371 0.006-2.241-1.336-3.482-4.623-4.281l-0.006-0.002zM54.304 11.824c-1.36 0-2.477 0.536-3.398 1.634v-1.236c0-0.098-0.078-0.177-0.175-0.177h-2.417c-0.097 0-0.175 0.079-0.175 0.177v13.735c0 0.097 0.078 0.177 0.175 0.177h2.417c0.097 0 0.175-0.080 0.175-0.177v-4.335c0.922 1.032 2.038 1.538 3.398 1.538 2.529 0 5.089-1.947 5.089-5.668 0.004-3.722-2.557-5.669-5.087-5.669l-0.002 0zM56.583 17.492c0 1.894-1.166 3.217-2.838 3.217-1.652 0-2.898-1.383-2.898-3.217s1.247-3.217 2.898-3.217c1.644-0 2.838 1.352 2.838 3.217v0zM65.953 11.824c-3.257 0-5.808 2.507-5.808 5.709 0 3.167 2.534 5.647 5.768 5.647 3.268 0 5.826-2.499 5.826-5.688 0-3.178-2.542-5.668-5.787-5.668v-0zM65.953 20.728c-1.732 0-3.038-1.392-3.038-3.237 0-1.853 1.262-3.198 2.999-3.198 1.743 0 3.057 1.392 3.057 3.238 0 1.853-1.269 3.196-3.018 3.196zM78.693 12.045h-2.659v-2.718c0-0.098-0.079-0.177-0.176-0.177h-2.417c-0.097 0-0.177 0.079-0.177 0.177v2.718h-1.161c-0.097 0-0.175 0.079-0.175 0.177v2.076c0 0.097 0.078 0.177 0.175 0.177h1.161v5.374c0 2.17 1.081 3.271 3.214 3.271 0.865 0 1.584-0.179 2.262-0.564 0.056-0.030 0.089-0.090 0.089-0.153v-1.978c0-0.060-0.031-0.118-0.084-0.149-0.052-0.034-0.118-0.035-0.171-0.007-0.465 0.233-0.915 0.341-1.418 0.341-0.775 0-1.121-0.353-1.121-1.14v-4.994h2.659c0.097 0 0.176-0.079 0.176-0.177v-2.076c0.004-0.098-0.074-0.177-0.173-0.177l-0.002-0.001zM87.958 12.055v-0.334c0-0.982 0.377-1.42 1.22-1.42 0.504 0 0.909 0.1 1.362 0.251 0.056 0.018 0.114 0.009 0.159-0.025 0.047-0.033 0.073-0.087 0.073-0.144v-2.036c0-0.078-0.048-0.147-0.125-0.17-0.478-0.142-1.090-0.289-2.008-0.289-2.23 0-3.411 1.257-3.411 3.633v0.511h-1.161c-0.097 0-0.177 0.080-0.177 0.177v2.087c0 0.097 0.080 0.177 0.177 0.177h1.161v8.287c0 0.099 0.080 0.177 0.177 0.177h2.415c0.099 0 0.177-0.078 0.177-0.177v-8.286h2.256l3.456 8.286c-0.391 0.87-0.778 1.043-1.305 1.043-0.425 0-0.875-0.127-1.332-0.379-0.043-0.022-0.095-0.026-0.14-0.013-0.047 0.017-0.086 0.050-0.105 0.095l-0.819 1.797c-0.039 0.086-0.006 0.185 0.076 0.23 0.855 0.463 1.626 0.661 2.579 0.661 1.784 0 2.771-0.832 3.639-3.068l4.191-10.831c0.023-0.054 0.015-0.116-0.019-0.164-0.031-0.048-0.086-0.077-0.144-0.077h-2.515c-0.077 0-0.144 0.048-0.168 0.119l-2.577 7.359-2.822-7.364c-0.026-0.068-0.092-0.114-0.164-0.114l-4.128-0.001zM82.586 12.045h-2.416c-0.097 0-0.177 0.079-0.177 0.177v10.54c0 0.099 0.080 0.177 0.177 0.177h2.416c0.097 0 0.178-0.078 0.178-0.177v-10.54c0-0.098-0.079-0.177-0.178-0.177v-0.001zM81.392 7.245c-0.957 0-1.733 0.775-1.733 1.732s0.776 1.733 1.733 1.733c0.958 0 1.732-0.776 1.732-1.733s-0.777-1.732-1.732-1.732zM102.558 15.434c-0.956 0-1.7-0.768-1.7-1.701s0.755-1.709 1.71-1.709c0.955 0 1.7 0.768 1.7 1.7s-0.754 1.71-1.709 1.71zM102.568 12.193c-0.872 0-1.531 0.692-1.531 1.54s0.655 1.53 1.521 1.53c0.871 0 1.53-0.692 1.53-1.54s-0.655-1.53-1.52-1.53zM102.945 13.899l0.481 0.673h-0.407l-0.432-0.618h-0.371v0.618h-0.34v-1.785h0.795c0.417 0 0.689 0.212 0.689 0.569 0.001 0.293-0.168 0.471-0.412 0.542h-0.002zM102.657 13.093h-0.442v0.565h0.442c0.22 0 0.353-0.108 0.353-0.283 0-0.184-0.132-0.282-0.353-0.282z"></path>
</symbol>

<symbol id="icon-airbnb" viewBox="0 0 102 32">
<path d="M54.038 8.040c0 1.153-0.929 2.082-2.082 2.082s-2.082-0.929-2.082-2.082c0-1.153 0.897-2.082 2.082-2.082 1.185 0.032 2.082 0.961 2.082 2.082zM45.453 12.236c0 0.192 0 0.512 0 0.512s-0.993-1.281-3.107-1.281c-3.492 0-6.214 2.659-6.214 6.342 0 3.652 2.691 6.342 6.214 6.342 2.146 0 3.107-1.313 3.107-1.313v0.545c0 0.256 0.192 0.448 0.448 0.448h2.595v-12.044c0 0-2.37 0-2.595 0-0.256 0-0.448 0.224-0.448 0.448zM45.453 19.956c-0.48 0.705-1.441 1.313-2.595 1.313-2.050 0-3.62-1.281-3.62-3.459s1.57-3.46 3.62-3.46c1.121 0 2.146 0.641 2.595 1.313v4.292zM50.418 11.788h3.075v12.044h-3.075v-12.044zM96.352 11.467c-2.114 0-3.107 1.281-3.107 1.281v-6.759h-3.075v17.842c0 0 2.37 0 2.594 0 0.257 0 0.449-0.224 0.449-0.448v-0.545c0 0 0.993 1.313 3.107 1.313 3.491 0 6.214-2.691 6.214-6.342s-2.723-6.342-6.182-6.342zM95.839 21.237c-1.185 0-2.114-0.609-2.594-1.313v-4.292c0.481-0.641 1.506-1.313 2.594-1.313 2.050 0 3.62 1.281 3.62 3.459s-1.57 3.459-3.62 3.459zM88.568 16.689v7.175h-3.075v-6.823c0-1.986-0.641-2.787-2.37-2.787-0.929 0-1.89 0.48-2.498 1.185v8.392h-3.075v-12.044h2.434c0.256 0 0.448 0.224 0.448 0.448v0.512c0.897-0.929 2.082-1.281 3.267-1.281 1.346 0 2.466 0.384 3.363 1.153 1.090 0.897 1.506 2.050 1.506 4.068zM70.086 11.467c-2.114 0-3.107 1.281-3.107 1.281v-6.759h-3.075v17.842c0 0 2.37 0 2.595 0 0.256 0 0.448-0.224 0.448-0.448v-0.545c0 0 0.993 1.313 3.107 1.313 3.491 0 6.214-2.691 6.214-6.342 0.032-3.652-2.691-6.342-6.182-6.342zM69.573 21.237c-1.185 0-2.114-0.609-2.595-1.313v-4.292c0.48-0.641 1.506-1.313 2.595-1.313 2.050 0 3.62 1.281 3.62 3.459s-1.57 3.459-3.62 3.459zM61.245 11.467c0.929 0 1.409 0.16 1.409 0.16v2.851c0 0-2.563-0.865-4.164 0.961v8.424h-3.075v-12.076c0 0 2.37 0 2.595 0 0.256 0 0.448 0.224 0.448 0.448v0.512c0.577-0.673 1.826-1.281 2.787-1.281zM29.309 22.743c-0.16-0.384-0.32-0.801-0.48-1.153-0.256-0.577-0.513-1.121-0.737-1.634l-0.032-0.032c-2.21-4.805-4.581-9.674-7.079-14.478l-0.096-0.192c-0.256-0.48-0.512-0.993-0.769-1.506-0.32-0.577-0.641-1.185-1.153-1.762-1.025-1.281-2.498-1.986-4.068-1.986-1.602 0-3.043 0.705-4.1 1.922-0.48 0.577-0.833 1.185-1.153 1.762-0.256 0.513-0.513 1.025-0.769 1.506l-0.096 0.192c-2.466 4.805-4.869 9.674-7.079 14.478l-0.032 0.064c-0.224 0.512-0.48 1.057-0.737 1.634-0.16 0.352-0.32 0.737-0.48 1.153-0.416 1.185-0.545 2.306-0.384 3.459 0.352 2.402 1.954 4.42 4.164 5.317 0.833 0.352 1.698 0.512 2.595 0.512 0.256 0 0.577-0.032 0.833-0.064 1.057-0.128 2.146-0.48 3.203-1.089 1.313-0.737 2.563-1.794 3.972-3.331 1.409 1.538 2.691 2.595 3.972 3.331 1.057 0.609 2.146 0.961 3.203 1.089 0.256 0.032 0.577 0.064 0.833 0.064 0.897 0 1.794-0.16 2.595-0.512 2.242-0.897 3.812-2.947 4.164-5.317 0.256-1.121 0.128-2.242-0.288-3.427zM14.862 24.408c-1.73-2.178-2.851-4.228-3.235-5.958-0.16-0.737-0.192-1.377-0.096-1.954 0.064-0.512 0.256-0.961 0.513-1.345 0.609-0.865 1.634-1.409 2.819-1.409s2.242 0.512 2.819 1.409c0.256 0.384 0.448 0.833 0.513 1.345 0.096 0.577 0.064 1.249-0.096 1.954-0.384 1.698-1.505 3.748-3.235 5.958zM27.643 25.914c-0.224 1.666-1.345 3.107-2.915 3.748-0.769 0.32-1.602 0.416-2.434 0.32-0.801-0.096-1.602-0.352-2.434-0.833-1.153-0.641-2.306-1.634-3.652-3.107 2.114-2.595 3.395-4.965 3.876-7.079 0.224-0.993 0.256-1.89 0.16-2.723-0.128-0.801-0.416-1.538-0.865-2.178-0.993-1.441-2.659-2.274-4.516-2.274s-3.524 0.865-4.516 2.274c-0.448 0.641-0.737 1.377-0.865 2.178-0.128 0.833-0.096 1.762 0.16 2.723 0.48 2.114 1.794 4.516 3.876 7.111-1.313 1.473-2.498 2.466-3.652 3.107-0.833 0.48-1.634 0.737-2.434 0.833-0.865 0.096-1.698-0.032-2.434-0.32-1.57-0.641-2.691-2.082-2.915-3.748-0.096-0.801-0.032-1.602 0.288-2.498 0.096-0.32 0.256-0.641 0.416-1.025 0.224-0.512 0.48-1.057 0.737-1.602l0.032-0.064c2.21-4.773 4.581-9.642 7.047-14.382l0.096-0.192c0.256-0.48 0.512-0.993 0.769-1.473 0.256-0.513 0.544-0.993 0.897-1.409 0.673-0.769 1.57-1.185 2.563-1.185s1.89 0.416 2.563 1.185c0.352 0.416 0.641 0.897 0.897 1.409 0.256 0.48 0.512 0.993 0.769 1.473l0.096 0.192c2.434 4.773 4.805 9.642 7.015 14.414v0.032c0.256 0.513 0.48 1.089 0.737 1.602 0.16 0.384 0.32 0.705 0.416 1.025 0.256 0.833 0.352 1.634 0.224 2.466z"></path>
</symbol>

<symbol id="icon-adobe" viewBox="0 0 122 32">
<path d="M13.381 0h-13.381v32l13.381-32z"></path>
<path d="M22.795 0h13.363v32l-13.363-32z"></path>
<path d="M18.088 11.793l8.516 20.206h-5.588l-2.545-6.433h-6.233l5.849-13.773z"></path>
<path d="M57.987 20.349l1.578 4.524c0.052 0.113 0.131 0.166 0.27 0.166h3.033c0.166 0 0.192-0.078 0.166-0.244l-6.268-17.408c-0.026-0.139-0.052-0.166-0.192-0.166h-3.766c-0.105 0-0.166 0.078-0.166 0.192-0.052 0.915-0.131 1.194-0.244 1.464l-5.588 15.891c-0.026 0.192 0.035 0.27 0.192 0.27h2.711c0.166 0 0.244-0.052 0.305-0.218l1.491-4.472h6.477zM52.374 17.394c0.819-2.476 1.9-5.649 2.336-7.462h0.026c0.54 1.9 1.813 5.666 2.388 7.462h-4.751z"></path>
<path d="M71.092 25.31c1.63 0 3.365-0.296 5.126-1.055 0.14-0.052 0.166-0.113 0.166-0.244-0.052-0.488-0.113-1.194-0.113-1.735v-16.388c0-0.105 0-0.157-0.131-0.157h-2.955c-0.113 0-0.166 0.052-0.166 0.192v5.553c-0.462-0.052-0.785-0.078-1.168-0.078-4.768 0-7.697 3.147-7.697 7.078 0 4.559 3.007 6.834 6.939 6.834zM73.018 22.277c-0.488 0.157-1.029 0.218-1.578 0.218-2.162 0-3.931-1.22-3.931-4.184 0-2.624 1.822-4.175 4.237-4.175 0.488 0 0.915 0.052 1.273 0.192v7.95z"></path>
<path d="M85.81 11.396c-4.071 0-6.59 3.121-6.59 6.974 0 3.443 2.005 6.939 6.529 6.939 3.827 0 6.511-2.816 6.511-7.026 0-3.713-2.275-6.886-6.45-6.886zM85.645 14.134c2.301 0 3.278 1.979 3.278 4.236 0 2.789-1.438 4.175-3.112 4.175-2.066 0-3.286-1.735-3.286-4.236 0-2.572 1.299-4.175 3.121-4.175z"></path>
<path d="M95.316 5.732c-0.113 0-0.192 0.052-0.192 0.192v18.55c0 0.078 0.079 0.218 0.192 0.244 1.298 0.401 2.659 0.593 4.062 0.593 4.018 0 7.923-2.493 7.923-7.514 0-3.635-2.493-6.398-6.398-6.398-0.898 0-1.734 0.139-2.467 0.384l-0.035-5.832c0-0.192-0.052-0.218-0.244-0.218h-2.842zM103.963 18.128c0 3.007-2.058 4.42-4.281 4.42-0.462 0-0.871-0.026-1.246-0.14v-7.915c0.427-0.166 0.942-0.305 1.892-0.305 2.144 0 3.635 1.36 3.635 3.94z"></path>
<path d="M118.33 19.102c1.325 0 2.415-0.026 2.79-0.113 0.14-0.026 0.192-0.078 0.219-0.192 0.078-0.296 0.112-0.915 0.112-1.674 0-2.58-1.552-5.727-5.561-5.727-4.097 0-6.373 3.339-6.373 7.104 0 3.339 1.761 6.808 6.694 6.808 1.849 0 3.043-0.296 4.071-0.785 0.104-0.052 0.156-0.139 0.156-0.296v-2.258c0-0.131-0.078-0.157-0.156-0.105-1.029 0.436-2.145 0.654-3.365 0.654-2.764 0-4.019-1.526-4.097-3.417h5.509zM112.821 16.766c0.218-1.325 1.054-2.763 2.928-2.763 2.066 0 2.607 1.735 2.607 2.519 0 0.026 0 0.14 0 0.218-0.113 0.026-0.462 0.026-1.491 0.026h-4.044z"></path>
</symbol>
</defs>
</svg>